<svg width="100%" height="100%" viewBox="0 0 24 24" fill="#fff" xmlns="http://www.w3.org/2000/svg" class="BaseIcon-3KAM BaseIcon--light-37wn BaseIcon--sized-2utE"><path clip-rule="evenodd" d="m11.4422 4h-4.88435-.00002c-.94429-.00001-1.71353-.00002-2.33805.05101-.64548.05273-1.22392.16492-1.76274.43946-.84673.43143-1.535138 1.11984-1.966568 1.96657-.27454.53882-.386728 1.11726-.4394654 1.76274-.05102602.62452-.05101716 1.39376-.05100628 2.33802v.0001 2.8843c-.00001088.9443-.00001974 1.7135.05100628 2.338.0527374.6455.1649254 1.2239.4394654 1.7628.43143.8467 1.119838 1.5351 1.966568 1.9665.53882.2746 1.11726.3868 1.76274.4395.62451.051 1.39372.051 2.33798.051h.00012 4.88422.0001c.9443 0 1.7135 0 2.338-.051.6455-.0527 1.2239-.1649 1.7628-.4395.8467-.4314 1.5351-1.1198 1.9665-1.9665.2746-.5389.3868-1.1173.4395-1.7628.0026-.032.0051-.0643.0074-.0971l4.4624 3.1874c.6618.4728 1.5812-.0003 1.5812-.8137v-12.11363c0-.81337-.9194-1.2865-1.5812-.81373l-4.4624 3.18737c-.0023-.03272-.0048-.06507-.0074-.09703-.0527-.64548-.1649-1.22392-.4395-1.76274-.4314-.84673-1.1198-1.53514-1.9665-1.96657-.5389-.27454-1.1173-.38673-1.7628-.43946-.6245-.05103-1.3937-.05102-2.338-.05101zm-8.07718 2.27248c.20988-.10693.49583-.18548 1.01762-.22812.53347-.04358 1.22077-.04436 2.21736-.04436h4.8c.9966 0 1.6839.00078 2.2174.04436.5218.04264.8077.12119 1.0176.22812.4704.23969.8528.62214 1.0925 1.09254.107.20988.1855.49583.2281 1.01762.0436.53347.0444 1.22077.0444 2.21736v2.8c0 .9966-.0008 1.6839-.0444 2.2174-.0426.5218-.1211.8077-.2281 1.0176-.2397.4704-.6221.8528-1.0925 1.0925-.2099.107-.4958.1855-1.0176.2281-.5335.0436-1.2208.0444-2.2174.0444h-4.8c-.99659 0-1.68389-.0008-2.21736-.0444-.52179-.0426-.80774-.1211-1.01762-.2281-.4704-.2397-.85285-.6221-1.09254-1.0925-.10693-.2099-.18548-.4958-.22812-1.0176-.04358-.5335-.04436-1.2208-.04436-2.2174v-2.8c0-.99659.00078-1.68389.04436-2.21736.04264-.52179.12119-.80774.22812-1.01762.23969-.4704.62214-.85285 1.09254-1.09254z" fill-rule="evenodd"></path></svg>