<svg width="100%" height="100%" viewBox="0 0 24 24" fill="#fff" xmlns="http://www.w3.org/2000/svg" class="BaseIcon-3KAM BaseIcon--sized-2utE BaseIcon--light-37wn"><path clip-rule="evenodd" d="m14.6649 1.00001-.1649.00002h-4.99997l-.16486-.00002c-1.702-.000213-2.74433-.000346-3.63001.21795-2.7067.66715-4.820053 2.7805-5.487196 5.4872-.21829784.88568-.21816623 1.92802-.2179507 3.63004l.00001526.1648-.00001526.1649c-.00021553 1.702-.00034714 2.7443.2179507 3.63.667143 2.7067 2.780496 4.82 5.487196 5.4872.88568.2183 1.92802.2182 3.63002.2179h.16485 2.83337l4.6667 3.5c.824.618 2 .0301 2-1v-2.9288c2.3648-.8356 4.174-2.8095 4.782-5.2763.2183-.8857.2182-1.928.2179-3.63v-.1649-.1648c.0003-1.70203.0004-2.74436-.2179-3.63004-.6671-2.7067-2.7805-4.82005-5.4872-5.4872-.8857-.218296-1.928-.218163-3.63-.21795zm-.1649 2.00002c1.9188 0 2.6976.00732 3.3163.15982 1.9849.48924 3.5347 2.03903 4.0239 4.02394.1525.6187.1598 1.39746.1598 3.31621 0 1.9188-.0073 2.6976-.1598 3.3163-.4892 1.9849-2.039 3.5347-4.0239 4.0239-.6187.1525-1.3975.1598-3.3163.1598h-4.99997c-1.91878 0-2.69754-.0073-3.31624-.1598-1.98491-.4892-3.5347-2.039-4.02394-4.0239-.1525-.6187-.15982-1.3975-.15982-3.3163 0-1.91875.00732-2.69751.15982-3.31621.48924-1.98491 2.03903-3.5347 4.02394-4.02394.6187-.1525 1.39746-.15982 3.31624-.15982zm-5.10307 6.55746c-.24452-.49521-.84418-.69844-1.33939-.45392-.4952.24452-.69843.84418-.45391 1.33943.41247.8353 1.05013 1.5388 1.84107 2.0311.7909.4924 1.7037.7539 2.6353.7552.9317.0012 1.8452-.2578 2.6374-.7479.7923-.4902 1.4319-1.192 1.8467-2.0262.2458-.49452.0443-1.09474-.4503-1.34061-.4945-.24587-1.0947-.04429-1.3406.45025-.2489.50056-.6326.92156-1.108 1.21566-.4753.2941-1.0234.4495-1.5824.4488-.559-.0008-1.1067-.1577-1.5812-.4531-.4746-.2954-.85719-.7175-1.10467-1.21871z" fill-rule="evenodd"></path></svg>