<svg width="100%" height="100%" viewBox="0 0 24 24" fill="#fff" xmlns="http://www.w3.org/2000/svg" class="BaseIcon-3KAM"><path clip-rule="evenodd" d="m21.75 12c0 5.3848-4.3652 9.75-9.75 9.75-5.38478 0-9.75-4.3652-9.75-9.75 0-5.38478 4.36522-9.75 9.75-9.75 5.3848 0 9.75 4.36522 9.75 9.75zm2.25 0c0 6.6274-5.3726 12-12 12-6.62742 0-12-5.3726-12-12 0-6.62742 5.37258-12 12-12 6.6274 0 12 5.37258 12 12zm-10.875-6.75c0-.62132-.5037-1.125-1.125-1.125s-1.125.50368-1.125 1.125v6.75c0 .6213.5037 1.125 1.125 1.125h4.5c.6213 0 1.125-.5037 1.125-1.125s-.5037-1.125-1.125-1.125h-3.375z" fill-rule="evenodd"></path></svg>