<svg width="100%" height="100%" viewBox="0 0 24 24" fill="#fff" xmlns="http://www.w3.org/2000/svg" class="BaseIcon-3KAM BaseIcon--sized-2utE BaseIcon--light-37wn peopleIcon-Fi8h" aria-label="Participants"><path clip-rule="evenodd" d="m12 6c0 2.20914-1.7909 4-4 4-2.20914 0-4-1.79086-4-4s1.79086-4 4-4c2.2091 0 4 1.79086 4 4zm7.225 6.0256c-.5381-.1243-1.0751.2112-1.1994.7493s.2112 1.0751.7493 1.1994c.6772.1565 1.4162.7032 2.0375 1.7541.6168 1.0432 1.0713 2.5154 1.1897 4.3364.0358.5512.5116.9689 1.0627.9331.5512-.0358.9689-.5117.9331-1.0628-.1343-2.0667-.6559-3.858-1.4639-5.2246-.8035-1.3589-1.9382-2.3682-3.309-2.6849zm-17.24064 8.1502c.37181-2.0824 1.09454-3.6228 2.08008-4.6328.96418-.9881 2.2508-1.543 3.93549-1.543 2.93157 0 5.62997 2.2946 6.00477 6.0981.0542.5496.5437.9512 1.0933.8971.5496-.0542.9513-.5437.8971-1.0933-.4641-4.7095-3.921-7.9019-7.99517-7.9019-2.17339 0-3.99266.7379-5.36692 2.1462-1.35289 1.3865-2.201126 3.346-2.6175149 5.678-.0970775.5437.2649699 1.0632.8086559 1.1602.543689.0971 1.063129-.2649 1.160209-.8086zm15.01564-11.1758c1.6569 0 3-1.34315 3-3s-1.3431-3-3-3-3 1.34315-3 3 1.3431 3 3 3z" fill-rule="evenodd"></path></svg>