<svg width="100%" height="100%" fill="#f26b4d" viewBox="0 0 24 24" xmlns="http://www.w3.org/2000/svg" class="BaseIcon-3KAM BaseIcon--sized-2utE BaseIcon--meetingRed-3IsO"><path clip-rule="evenodd" d="m17.9101 6.59611c-.0247-.33383-.0916-2.08992 1.2366-2.08992 1.4268 0 1.87 1.79068 1.8936 1.89027l.0021.00928c.0786.36578.1552.71979.2295 1.06277 1.5223 7.02979 2.0416 9.42819-2.1252 13.59499-4.3668 4.3668-11.17718 1.0918-17.08286-4.807-.01142-.0114-.02279-.0223-.03454-.0333-.17816-.1679-1.651682-1.61-.72652-2.5351.98353-.9836 2.63107.664 2.63107.664l1.76846 1.7684c.2721.2721.71326.2721.98535 0 .2721-.2721.2721-.7132 0-.9853l-4.49619-4.4963c-.0064-.0064-.01197-.0121-.01807-.0188-.10483-.1149-1.1329-1.28563-.30366-2.11491.87286-.87289 2.09098.3452 2.09102.34524l4.02075 4.02077c.27151.2715.71172.2715.98322 0 .27151-.2715.27151-.7117.00001-.9832l-5.72882-5.72898c-.02271-.02271-.0462-.04398-.07005-.0655-.21048-.18988-1.24151-1.20799-.29439-2.1551.9428-.94281 1.94711.08338 2.14183.30209.02326.02613.04613.0516.07087.07634l5.46322 5.46317c.2837.28368.7437.28368 1.0274 0 .2837-.28371.2837-.74369 0-1.02741l-4.29008-4.29007c-.02347-.02347-.04761-.04527-.07235-.0674-.20963-.18753-1.20576-1.16121-.34132-2.02562.96128-.96124 2.17921.25659 2.17943.25681l.00001.00001 7.09461 7.09461c.6196.61965 1.6797.19919 1.7054-.67679.03-1.02642.0594-2.06518.0638-2.34063.0006-.03652-.0015-.07099-.0042-.10742zm-1.7613 5.81959c.2202-.1667.2635-.4803.0968-.7004-.1667-.2202-.4803-.2635-.7005-.0968-1.7516 1.3265-3.116 4.2243-1.8491 7.7871.0925.2602.3784.3962.6386.3036.2602-.0925.3961-.3784.3036-.6386-1.1199-3.1495.1045-5.5901 1.5106-6.6549z" fill-rule="evenodd"></path></svg>