<svg width="100%" height="100%" viewBox="0 0 24 24" fill="#fff" xmlns="http://www.w3.org/2000/svg" class="BaseIcon-3KAM BaseIcon--sized-2utE BaseIcon--light-37wn" aria-label="Locked"><path clip-rule="evenodd" d="m7.49852 11.0629.24435-.0629h8.51423l.2444.0629c.863.2221 1.4985 1.0079 1.4985 1.9371v5c0 1.1046-.8954 2-2 2h-8c-1.10457 0-2-.8954-2-2v-5c0-.9292.63547-1.715 1.49852-1.9371zm1.50148-4.0629v2h6v-2c0-1.65685-1.3431-3-3-3s-3 1.34315-3 3zm8 0c0-2.76142-2.2386-5-5-5-2.76142 0-5 2.23858-5 5v2.12602c-1.72523.44404-3 2.01018-3 3.87398v5c0 2.2091 1.79086 4 4 4h8c2.2091 0 4-1.7909 4-4v-5c0-1.8638-1.2748-3.42994-3-3.87398zm-5 6c-.5523 0-1 .4477-1 1v2c0 .5523.4477 1 1 1s1-.4477 1-1v-2c0-.5523-.4477-1-1-1z" fill-rule="evenodd"></path></svg>