<svg width="100%" height="100%" viewBox="0 0 24 24" fill="#fff" xmlns="http://www.w3.org/2000/svg" class="BaseIcon-3KAM BaseIcon--light-37wn BaseIcon--sized-2utE"><path clip-rule="evenodd" d="m8 13c0 1.1046.89543 2 2 2h4c1.1046 0 2-.8954 2-2v-8c0-2.20914-1.7909-4-4-4-2.20914 0-4 1.79086-4 4zm-3-3.5c.55228 0 1 .44771 1 1v3.5c0 1.6569 1.34315 3 3 3h3 3c1.6569 0 3-1.3431 3-3v-3.5c0-.55229.4477-1 1-1s1 .44771 1 1v3.5c0 2.7614-2.2386 5-5 5h-2v3c0 .5523-.4477 1-1 1s-1-.4477-1-1v-3h-2c-2.76142 0-5-2.2386-5-5v-3.5c0-.55229.44772-1 1-1z" fill-rule="evenodd"></path></svg>