<svg width="100%" height="100%" fill="#fff" viewBox="0 0 24 24" xmlns="http://www.w3.org/2000/svg" class="BaseIcon-3KAM BaseIcon--light-37wn BaseIcon--sized-2utE"><path clip-rule="evenodd" d="m8 6.58579v-1.58579c0-2.20914 1.79086-4 4-4 2.2091 0 4 1.79086 4 4v8c0 .4466-.1464.8591-.3938 1.1919l1.7127 1.7128c.0406-.048.0823-.1006.1241-.1577.2765-.3779.557-.9507.557-1.747v-3.5c0-.55229.4477-1 1-1s1 .44771 1 1v3.5c0 1.3037-.4695 2.2809-.943 2.928-.1085.1483-.2173.2795-.3209.3939l2.971 2.971c.3905.3905.3905 1.0237 0 1.4142s-1.0237.3905-1.4142 0l-18.00001-17.99999c-.39052-.39053-.39052-1.02369 0-1.41422.39053-.39052 1.02369-.39052 1.41422 0zm-3 2.91421c.55228 0 1 .44771 1 1v3.5c0 1.6569 1.34315 3 3 3h3c.5523 0 1 .4477 1 1v4c0 .5523-.4477 1-1 1s-1-.4477-1-1v-3h-2c-2.76142 0-5-2.2386-5-5v-3.5c0-.55229.44772-1 1-1z" fill-rule="evenodd"></path></svg>