<svg width="100%" height="100%" viewBox="0 0 24 24" xmlns="http://www.w3.org/2000/svg" class="BaseIcon-3KAM BaseIcon--light-37wn camOffIcon-RcI-" fill="#fff"><path clip-rule="evenodd" d="m1.70711 2.29289c-.39053-.39052-1.023692-.39052-1.414216 0-.3905248.39053-.3905248 1.02369 0 1.41422l18.000006 17.99999c.3905.3905 1.0237.3905 1.4142 0s.3905-1.0237 0-1.4142l-1.7072-1.7072v-2.8714l4.4187 3.1562c.6619.4728 1.5813-.0003 1.5813-.8137v-12.11363c0-.81337-.9194-1.2865-1.5813-.81373l-4.4623 3.18737c-.0023-.03272-.0048-.06507-.0074-.09703-.0528-.64548-.165-1.22392-.4395-1.76274-.4314-.84673-1.1198-1.53514-1.9666-1.96657-.5388-.27454-1.1172-.38673-1.7627-.43946-.6245-.05103-1.3938-.05102-2.3381-.05101h-8.02779zm3.70711 3.70711 10.58568 10.5857v-5.9857c0-.99659-.0008-1.68389-.0444-2.21736-.0426-.52179-.1212-.80774-.2281-1.01762-.2397-.4704-.6221-.85285-1.0925-1.09254-.2099-.10693-.4959-.18548-1.0177-.22812-.5334-.04358-1.2207-.04436-2.2173-.04436zm1.18578 11.9995c-.99659 0-1.6839-.0008-2.21736-.0444-.52179-.0426-.80774-.1211-1.01762-.2281-.4704-.2397-.85285-.6221-1.09254-1.0925-.10693-.2099-.18548-.4958-.22812-1.0176-.04358-.5335-.04436-1.2208-.04436-2.2174v-4.39999c0-.55228-.44771-1-1-1-.552284 0-.99999968.44772-.99999968 1v4.44209.0001c-.00001095.9443-.00001987 1.7135.05100578 2.338.0527369.6455.1649259 1.224.4394649 1.7628.43143.8467 1.119839 1.5351 1.966569 1.9665.53882.2746 1.11726.3868 1.76274.4395.62451.051 1.39372.051 2.33798.051h.00009 4.44215c.5523 0 1-.4477 1-1s-.4477-1-1-1z" fill-rule="evenodd"></path></svg>