<svg width="100%" height="100%" fill="#fff" viewBox="0 0 24 24" xmlns="http://www.w3.org/2000/svg" class="BaseIcon-3KAM BaseIcon--light-37wn BaseIcon--sized-2utE"><g><path d="m23 11.74c-.06-1.14-.76-2.15-1.8-2.6-.07-.03-.14-.06-.23-.09-.01 0-.01 0-.02-.01l-.94-.35.42-.92c.04-.09.08-.17.11-.24.42-1.06.2-2.27-.57-3.12-.05-.06-.11-.12-.18-.19s-.13-.13-.19-.18c-.85-.77-2.05-.99-3.12-.57-.07.03-.14.06-.22.1-.01 0-.01 0-.02.01l-.92.42-.35-.94c-.03-.09-.06-.17-.1-.25-.45-1.05-1.46-1.75-2.6-1.8-.09-.01-.17-.01-.27-.01s-.18 0-.26 0c-1.14.06-2.15.76-2.6 1.8-.04.08-.06.15-.09.23 0 .01 0 .01-.01.02l-.36.94-.91-.41c-.09-.04-.17-.08-.24-.11-1.06-.42-2.27-.2-3.12.57-.06.05-.12.11-.19.18s-.13.13-.18.19c-.77.85-.99 2.06-.57 3.12.03.07.06.14.1.22 0 .01.01.01.01.02l.42.92-.95.35c-.09.03-.17.06-.24.09-1.05.46-1.75 1.47-1.81 2.61v.26.26c.06 1.14.76 2.15 1.8 2.6.07.03.14.06.23.09.01 0 .01 0 .02.01l.94.35-.42.92c-.04.09-.08.17-.11.24-.42 1.06-.2 2.27.57 3.12.05.06.11.12.18.19s.13.13.19.18c.85.77 2.05.99 3.12.57.07-.03.14-.06.22-.1.01 0 .01 0 .02-.01l.92-.42.35.94c.03.09.06.17.1.25.45 1.05 1.46 1.75 2.6 1.8h.26.26c1.14-.06 2.15-.76 2.6-1.8.03-.07.06-.14.09-.23 0-.01 0-.01.01-.02l.35-.94.92.42c.09.04.17.08.24.11 1.06.42 2.27.2 3.12-.57.06-.05.12-.11.19-.18s.13-.13.18-.19c.77-.85.99-2.05.57-3.12-.03-.07-.06-.14-.1-.22 0-.01-.01-.01-.01-.02l-.42-.92.94-.35c.09-.03.17-.06.25-.1 1.05-.45 1.75-1.46 1.8-2.6 0-.08 0-.17 0-.26.02-.1.02-.18.02-.26zm-2 .42c-.02.38-.25.72-.6.87-.02.01-.04.02-.15.06l-1.94.73c-.26.1-.47.3-.57.55-.11.26-.1.54.01.8l.86 1.89c.05.11.06.13.07.15.14.35.07.76-.19 1.04-.01.01-.03.03-.11.12-.08.08-.1.1-.12.11-.28.26-.68.33-1.04.19-.02-.01-.04-.02-.15-.07l-1.89-.86c-.25-.11-.54-.12-.8-.01s-.46.31-.55.57l-.73 1.94c-.04.11-.05.14-.06.15-.15.35-.49.58-.87.6-.02 0-.04 0-.16 0s-.14 0-.16 0c-.38-.02-.72-.25-.87-.6-.01-.02-.02-.04-.06-.15l-.74-1.94c-.1-.26-.3-.47-.55-.57-.26-.11-.54-.1-.8.01l-1.89.86c-.11.05-.13.06-.15.07-.35.14-.76.07-1.04-.19-.01-.01-.03-.03-.12-.11s-.1-.1-.11-.12c-.26-.28-.33-.68-.19-1.04.01-.02.02-.04.07-.15l.86-1.89c.11-.25.12-.54.01-.8s-.31-.46-.57-.55l-1.94-.73c-.11-.04-.14-.05-.15-.06-.35-.15-.58-.49-.6-.87 0-.02 0-.04 0-.16s0-.14 0-.16c.02-.38.25-.72.6-.87.02-.01.04-.02.15-.06l1.94-.73c.26-.1.47-.3.57-.55.11-.26.1-.54-.01-.8l-.86-1.89c-.05-.11-.06-.13-.07-.15-.14-.35-.06-.76.19-1.04.01-.01.03-.03.11-.12.08-.08.1-.1.12-.11.28-.26.68-.33 1.04-.19.02.01.04.02.15.07l1.89.86c.25.11.54.12.8.01.25-.1.45-.31.55-.57l.73-1.94c.04-.12.05-.14.06-.16.15-.35.49-.58.87-.6h.16.16c.38.02.72.25.87.6.01.02.02.04.06.15l.73 1.94c.1.26.3.47.55.57.26.11.54.1.8-.01l1.89-.86c.11-.05.13-.06.15-.07.35-.14.76-.07 1.04.19.01.01.03.03.12.11s.1.1.11.12c.26.28.33.68.19 1.04-.01.02-.02.04-.07.15l-.86 1.89c-.11.25-.12.54-.01.8s.31.46.57.55l1.94.73c.11.04.14.05.15.06.35.15.58.49.6.87v.16c.01.13.01.16.01.17z"></path><path d="m12 15c1.6569 0 3-1.3431 3-3s-1.3431-3-3-3-3 1.3431-3 3 1.3431 3 3 3z"></path></g></svg>