<svg width="100%" height="100%" viewBox="0 0 24 24" fill="#fff" xmlns="http://www.w3.org/2000/svg" class="BaseIcon-3KAM BaseIcon--sized-2utE BaseIcon--light-37wn"><path clip-rule="evenodd" d="M5.45455 2C2.44208 2 0 4.44208 0 7.45455V16.1818C0 19.1943 2.44208 21.6364 5.45455 21.6364H7.63636C8.23886 21.6364 8.72727 21.1479 8.72727 20.5455C8.72727 19.943 8.23886 19.4545 7.63636 19.4545H5.45455C3.64707 19.4545 2.18182 17.9893 2.18182 16.1818V7.45455C2.18182 5.64707 3.64707 4.18182 5.45455 4.18182H18.5455C20.3529 4.18182 21.8182 5.64707 21.8182 7.45455V9.63636C21.8182 10.2389 22.3066 10.7273 22.9091 10.7273C23.5116 10.7273 24 10.2389 24 9.63636V7.45455C24 4.44208 21.5579 2 18.5455 2H5.45455ZM13.9091 12.9091C12.2522 12.9091 10.9091 14.2522 10.9091 15.9091V18.6364C10.9091 20.2932 12.2522 21.6364 13.9091 21.6364H21C22.6569 21.6364 24 20.2932 24 18.6364V15.9091C24 14.2522 22.6569 12.9091 21 12.9091H13.9091ZM9.81818 6.36364C10.4207 6.36364 10.9091 6.85205 10.9091 7.45455V11.8182C10.9091 12.4207 10.4207 12.9091 9.81818 12.9091H5.45455C4.85205 12.9091 4.36364 12.4207 4.36364 11.8182C4.36364 11.2157 4.85205 10.7273 5.45455 10.7273H7.18449L4.68316 8.22593C4.25713 7.79991 4.25713 7.10918 4.68316 6.68316C5.10918 6.25713 5.79991 6.25713 6.22593 6.68316L8.72727 9.18449V7.45455C8.72727 6.85205 9.21569 6.36364 9.81818 6.36364Z" fill-rule="evenodd"></path></svg>