<svg fill="none" height="73" viewBox="0 0 355 73" width="355" xmlns="http://www.w3.org/2000/svg" xmlns:xlink="http://www.w3.org/1999/xlink"><mask id="a" height="73" maskUnits="userSpaceOnUse" width="355" x="0" y="0"><path d="m0 0h355v73h-355z" fill="#fff"/></mask><g mask="url(#a)"><path d="m0 1h212.275c7.842 0 14.2 6.35756 14.2 14.2v42.6c0 7.8424-6.358 14.2-14.2 14.2h-212.275z" fill="#000" fill-opacity=".56"/><g fill="#fff"><path clip-rule="evenodd" d="m183.875 25.8501c0 3.9212-3.179 7.1-7.1 7.1-3.922 0-7.1-3.1788-7.1-7.1 0-3.9213 3.178-7.1 7.1-7.1 3.921 0 7.1 3.1787 7.1 7.1zm12.824 10.6954c-.955-.2206-1.908.3749-2.129 1.33s.375 1.9083 1.33 2.1289c1.202.2778 2.514 1.2482 3.617 3.1136 1.094 1.8517 1.901 4.4648 2.111 7.6971.064.9784.908 1.7198 1.887 1.6562.978-.0635 1.719-.9082 1.656-1.8864-.238-3.6684-1.164-6.848-2.598-9.2737-1.427-2.412-3.441-4.2036-5.874-4.7657zm-30.602 14.4666c.66-3.6963 1.943-6.4305 3.692-8.2232 1.711-1.7539 3.995-2.7388 6.986-2.7388 5.203 0 9.993 4.0729 10.658 10.8241.096.9755.965 1.6884 1.941 1.5923.975-.0962 1.688-.965 1.592-1.9406-.824-8.3593-6.96-14.0258-14.191-14.0258-3.858 0-7.087 1.3097-9.527 3.8095-2.401 2.461-3.907 5.9391-4.646 10.0784-.172.9651.47 1.8872 1.436 2.0594.965.1723 1.887-.4702 2.059-1.4353zm26.653-19.837c2.941 0 5.325-2.3841 5.325-5.325s-2.384-5.325-5.325-5.325-5.325 2.3841-5.325 5.325 2.384 5.325 5.325 5.325z" fill-rule="evenodd"/><path d="m-1.22607 46h2.63854v-8.3569c0-1.8266 1.27957-3.0974 2.77974-3.0974 1.46488 0 2.47971.9707 2.47971 2.4444v9.0099h2.62972v-8.6392c0-1.6326.99716-2.8151 2.71796-2.8151 1.3943 0 2.5415.7766 2.5415 2.6121v8.8422h2.6385v-9.0893c0-3.0974-1.7296-4.6417-4.1828-4.6417-1.9502 0-3.41512.9354-4.06814 2.3826h-.14119c-.59125-1.4825-1.83552-2.3826-3.64455-2.3826-1.79139 0-3.1239.8913-3.68867 2.3826h-.16767v-2.2061h-2.53265z"/><path d="m102.829 45.9971c3.636 0 6.23-2.5679 6.221-6.0889.009-3.4946-2.426-6.0361-5.718-6.0361-1.341 0-2.586.5119-3.292 1.2002h-.1055l.5735-5.0565h7.669v-2.3385h-9.9368l-1.0148 9.107 2.4974.3706c.6792-.6089 1.8972-1.0237 2.9912-1.0237 2.145.0177 3.698 1.6238 3.698 3.8299 0 2.1709-1.509 3.7416-3.583 3.7416-1.747 0-3.1327-1.1119-3.2739-2.665h-2.6474c.1059 2.8768 2.6033 4.9594 5.9213 4.9594z"/><path d="m119.192 26.8301h-2.356l-5.824 21.6379h2.356z"/><path d="m128.255 27.6773h-2.656l-4.51 2.9474v2.6121l4.324-2.8239h.106v15.3371h2.736z"/><path d="m133.144 45.75h11.895v-2.3385h-8.136v-.1324l3.591-3.7592c3.31-3.3445 4.254-4.9418 4.254-6.9626 0-2.9033-2.365-5.1271-5.771-5.1271-3.38 0-5.851 2.1885-5.851 5.4889h2.603c-.009-1.9414 1.244-3.2121 3.195-3.2121 1.835 0 3.23 1.1295 3.23 2.9297 0 1.5973-.954 2.7445-2.895 4.8006l-6.115 6.336z"/></g><rect fill="#000" fill-opacity=".56" height="71" rx="14.2" width="115.375" x="238" y="1"/><path d="m271.964 27.2401h-2.582l-4.382 2.8644v2.5385l4.202-2.7443h.103v14.9051h2.659z" fill="#fff"/><path d="m282.829 45.0953c4.057 0 6.432-3.3103 6.432-9.0648 0-5.7116-2.409-9.0305-6.432-9.0305-4.03 0-6.432 3.3103-6.44 9.0305 0 5.7459 2.375 9.0563 6.44 9.0648zm0-2.2897c-2.375 0-3.807-2.3842-3.807-6.7751.008-4.3737 1.441-6.7836 3.807-6.7836 2.359 0 3.8 2.4099 3.8 6.7836 0 4.3909-1.433 6.7751-3.8 6.7751z" fill="#fff"/><path d="m294.028 33.8265c.934 0 1.715-.7633 1.715-1.7152 0-.9348-.781-1.7066-1.715-1.7066-.944 0-1.716.7718-1.716 1.7066 0 .9519.772 1.7152 1.716 1.7152zm0 8.799c.934 0 1.715-.7633 1.715-1.7152 0-.9348-.781-1.7067-1.715-1.7067-.944 0-1.716.7719-1.716 1.7067 0 .9519.772 1.7152 1.716 1.7152z" fill="#fff"/><path d="m298.774 41.3734h8.328v3.4304h2.53v-3.4304h2.324v-2.2469h-2.324v-11.8864h-3.268l-7.59 11.9893zm8.345-2.2469h-5.566v-.1373l5.429-8.5931h.137z" fill="#fff"/><path d="m314.944 44.8038h11.561v-2.2727h-7.907v-.1286l3.49-3.6534c3.216-3.2503 4.134-4.8025 4.134-6.7664 0-2.8215-2.298-4.9827-5.609-4.9827-3.284 0-5.686 2.1268-5.686 5.3343h2.53c-.008-1.8868 1.209-3.1217 3.105-3.1217 1.784 0 3.139 1.0977 3.139 2.8472 0 1.5523-.927 2.6672-2.813 4.6654l-5.944 6.1575z" fill="#fff"/><path clip-rule="evenodd" d="m44.5351 34.8366.4337-.1116h15.1128l.4337.1116c1.5319.3943 2.6599 1.7891 2.6599 3.4384v8.875c0 1.9606-1.5894 3.55-3.55 3.55h-14.2c-1.9606 0-3.55-1.5894-3.55-3.55v-8.875c0-1.6493 1.128-3.0441 2.6599-3.4384zm2.6651-7.2116v3.55h10.65v-3.55c0-2.9409-2.3841-5.325-5.325-5.325s-5.325 2.3841-5.325 5.325zm14.2 0c0-4.9015-3.9735-8.875-8.875-8.875s-8.875 3.9735-8.875 8.875v3.7737c-3.0623.7882-5.325 3.568-5.325 6.8763v8.875c0 3.9212 3.1788 7.1 7.1 7.1h14.2c3.9212 0 7.1-3.1788 7.1-7.1v-8.875c0-3.3083-2.2627-6.0881-5.325-6.8763zm-8.8751 10.65c-.9803 0-1.775.7947-1.775 1.775v3.55c0 .9803.7947 1.775 1.775 1.775s1.775-.7947 1.775-1.775v-3.55c0-.9803-.7947-1.775-1.775-1.775z" fill="#fff" fill-rule="evenodd"/></g></svg>